Patient4_TMGait_0pt4_03_left_26_EMG.mot
version=1
nRows=13
nColumns=33
inDegrees=no
endheader
time	1LAddLong	2LGlutMax	3LGlutMed	4LIliopsoas	5LSemiMemb	6LBicFemLong	7LRecFem	8LVastMed	9LVastLat	10LGasMed	11LTibAnt	12lTibPost	13LPeroneusLong	14LSol	15LExtDigLong	16LFlexDigLong	17RAddLong	18RGlutMax	19RGlutMed	20RIliopsoas	21RSemiMemb	22RBicFemLong	23RRecFem	24RVastMed	25RVastLat	26RGasMed	27RTibAnt	28RTibPost	29RPeroneusLong	30RSol	31RExtDigLong	32RFlexDigLong
34.24	0.025787	-0.044403	-0.024261	-0.001984	0.007629	-0.029449	0.045929	0.000153	0.11337	-0.088959	0.14816	0.000458	0.10819	-0.024261	-0.22125	0.00473	0.001068	0.005035	0.32425	0.005646	-0.082703	0.011902	-0.030212	0.026398	0.028839	-0.007019	0.020142	0.003967	-0.040588	-0.20462	0.001373	-0.010376
34.241	0.015869	-0.053558	-0.004883	-0.002747	0.007324	-0.025635	0.044708	0.006256	0.12802	-0.091553	0.090637	-0.006104	0.065002	-0.058136	0.15671	0.010681	0.032501	-0.016327	0.30563	0.028992	-0.066071	-0.024261	0.012817	-0.043488	0.023651	-0.010223	0.034943	-0.005493	0.14771	-0.19379	-0.002441	-0.014343
34.242	0.015869	-0.038757	0.002136	-0.000458	0.002289	-0.045319	0.067749	0.020752	0.14099	-0.054016	0.058746	0.001984	-0.003052	-0.007782	0.095062	0.005188	0.036163	-0.03418	0.20889	0.011444	-0.10193	-0.093384	0.03418	-0.086517	0.030365	-0.007935	-0.012207	-0.005646	-0.41901	0.001373	-0.001984	-0.004425
34.243	0.016174	-0.03952	0.012054	0.005188	-0.009308	-0.043182	0.052338	0.006714	0.14725	-0.018768	-0.007935	0.005646	-0.076752	-0.006409	0.2504	0.003357	0.033722	-0.036011	0.61874	0.045624	-0.22476	-0.17914	0.013885	-0.10956	0.01297	-0.009003	0.032349	-0.005951	-0.35843	0.02243	-0.006256	-0.01358
34.244	0.021362	-0.009766	0.028381	0.025482	-0.003662	-0.006256	0.032806	0.007172	0.15335	-0.021362	-0.095367	0.01236	-0.027771	-0.026703	0.22507	-0.003815	0.041809	-0.00061	0.30456	0.043182	-0.23651	-0.18127	-0.002136	-0.058136	0.021667	0.01236	0.035858	-0.010223	0.022583	-0.013428	-0.002136	-0.010681
34.245	0.02243	-0.030975	-0.025635	-0.002289	-0.014954	0.009308	0.028381	0.013123	0.14847	-0.049591	-0.15579	0.007935	0.001984	-0.075531	0.15045	0.002289	0.041046	0.078735	0.3157	0.057526	-0.075836	-0.023041	0.014191	-0.11398	0.014038	0.044708	-0.005646	-0.005798	0.11292	-0.017395	0.001526	-0.009155
34.246	0.025787	-0.004578	-0.028687	0.039673	-0.019379	0.022278	0.010986	0.014954	0.15305	-0.053864	-0.088959	-0.003357	0.001373	-0.09613	0.19913	-0.004883	0.003967	0.11734	0.58304	0.06546	-0.13641	0.16037	-0.005798	-0.026855	-0.022736	0.053101	-0.022888	-0.010376	0.14923	-0.023041	0.005035	-0.005341
34.247	0.016174	-0.012665	-0.037537	0.01709	-0.006714	0.028687	0.019684	0.011902	0.17075	-0.053406	-0.048523	0.012665	0.003204	-0.083771	0.13657	0.006409	-0.059967	0.013885	0.68603	0.016174	-0.58945	0.21622	-0.015564	-0.018768	-0.013428	0.053406	-0.001831	-0.012207	0.19028	-0.031891	-0.001678	-0.003357
34.248	0.015106	0.017395	-0.034027	-0.006866	-0.014954	0.061035	0.029297	0.009613	0.15396	-0.039215	-0.16098	0.000153	0.041046	-0.088196	-0.039825	-0.009308	-0.05188	0.000916	0.6012	-0.11154	-0.33722	-0.036163	0.001526	0.090942	0.001984	0.05188	0.035706	-0.014191	0.1001	0.005341	-0.002289	-0.004883
34.249	0.008698	-0.006866	-0.026855	0.002747	-0.010681	0.043488	0.027008	0.011139	0.15228	-0.031586	-0.09552	0.000153	0.028839	-0.10513	-0.28061	-0.002136	-0.066223	-0.039825	0.28671	-0.14908	0.36804	-0.11688	-0.008698	0.21622	0.016479	0.02594	0.068359	-0.029907	-0.060883	0.008545	0.00061	-0.000916
34.25	0.00824	0.008392	-0.022888	-0.001373	-0.001984	0.051117	0.027924	0.014038	0.14862	-0.019531	0.033112	-0.007019	-0.005951	-0.1059	-0.2565	-0.002289	-0.028687	-0.036163	-0.31982	-0.093689	0.32806	-0.11078	0.099335	0.094147	-0.023346	-0.045929	0.051575	-0.10574	-0.30075	0.037079	-0.002136	-0.003815
34.251	0.005646	0.022888	-0.059052	-0.001068	-0.019226	0.047302	0.014343	0.015106	0.14771	-0.037384	0.058136	-0.000916	0.012512	-0.060272	-0.242	-0.003815	0.017395	-0.006866	-0.34073	0.019531	0.19272	-0.1236	0.15182	0.00885	-0.041351	-0.06073	0.040283	-0.23438	-0.85403	-0.1622	-0.003052	-0.00946
34.252	0.016022	0.013428	-0.01709	-0.003815	0.020142	0.043488	0.006104	0.006256	0.15427	-0.036926	0.11414	0.015717	0.045929	0.021362	-0.19134	0.002899	0.03891	0.025482	-0.024872	0.14435	0.23575	-0.21179	0.12543	-0.039368	-0.095062	-0.019836	-0.006561	0.28717	-0.58823	-0.18585	0	-0.00473
